<svg width="24" height="24" viewBox="0 0 24 24" fill="none" xmlns="http://www.w3.org/2000/svg">
<path fill-rule="evenodd" clip-rule="evenodd" d="M15.0002 5.9001C13.8404 5.9001 12.9002 6.8403 12.9002 8.0001C12.9002 9.1599 13.8404 10.1001 15.0002 10.1001C16.16 10.1001 17.1002 9.1599 17.1002 8.0001C17.1002 6.8403 16.16 5.9001 15.0002 5.9001ZM11.1002 8.0001C11.1002 5.84619 12.8463 4.1001 15.0002 4.1001C17.1541 4.1001 18.9002 5.84619 18.9002 8.0001C18.9002 10.154 17.1541 11.9001 15.0002 11.9001C12.8463 11.9001 11.1002 10.154 11.1002 8.0001ZM10.5496 16.1157C9.44377 16.8529 8.90013 17.7725 8.90013 18.6667C8.90013 18.8105 8.89922 18.9544 8.90195 19.0982C12.8673 19.1733 16.8345 19.1 20.8001 19.1C20.8995 19.1 20.9989 19.1001 21.0983 19.0982C21.101 18.9544 21.1001 18.8105 21.1001 18.6667C21.1001 17.7725 20.5565 16.8529 19.4506 16.1157C18.3511 15.3826 16.7802 14.9 15.0001 14.9C13.22 14.9 11.6492 15.3826 10.5496 16.1157ZM9.55116 14.618C10.9851 13.662 12.9142 13.1 15.0001 13.1C17.086 13.1 19.0152 13.662 20.4491 14.618C21.8768 15.5698 22.9001 16.9835 22.9001 18.6667C22.9001 18.8996 22.9059 19.1336 22.8869 19.3659C22.8722 19.5466 22.8366 19.7708 22.7203 19.9991C22.5621 20.3096 22.3097 20.562 21.9992 20.7202C21.771 20.8365 21.5467 20.872 21.366 20.8868C21.2036 20.9001 21.0136 20.9 20.8269 20.9H9.17335C8.9867 20.9 8.79668 20.9001 8.63424 20.8868C8.45352 20.872 8.22929 20.8365 8.00105 20.7202C7.69058 20.562 7.43816 20.3096 7.27997 19.9991C7.16368 19.7708 7.1281 19.5466 7.11334 19.3659C7.09436 19.1336 7.10013 18.8996 7.10013 18.6667C7.10013 16.9835 8.1235 15.5698 9.55116 14.618ZM2.96512 15.7276C4.00625 15.0335 5.38422 14.6242 6.86759 14.6012C6.38152 15.1677 5.97499 15.8132 5.69783 16.5308C5.01795 16.6716 4.42544 16.9174 3.96358 17.2253C3.21967 17.7212 2.89989 18.3076 2.89989 18.8335C2.89989 18.9218 2.89978 19.0102 2.90123 19.0986C3.70121 19.1118 4.50139 19.0999 5.30141 19.0999C5.30337 19.2303 5.30809 19.375 5.31932 19.5125C5.34318 19.8045 5.40903 20.292 5.67616 20.8163C5.69048 20.8444 5.70518 20.8723 5.72023 20.8999L3.14158 20.8999C2.96898 20.8999 2.79317 20.9 2.64262 20.8886C2.47548 20.8759 2.26763 20.8455 2.05295 20.7455C1.70107 20.5815 1.41828 20.2987 1.2543 19.9468C1.15426 19.7322 1.12388 19.5243 1.11123 19.3572C1.09805 19.183 1.09987 19.008 1.09989 18.8335C1.09989 17.5185 1.8994 16.4381 2.96512 15.7276ZM5.40001 10C5.40001 9.39249 5.8925 8.9 6.50001 8.9C7.10752 8.9 7.60001 9.39249 7.60001 10C7.60001 10.6075 7.10752 11.1 6.50001 11.1C5.8925 11.1 5.40001 10.6075 5.40001 10ZM6.50001 7.1C4.89838 7.1 3.60001 8.39837 3.60001 10C3.60001 11.6016 4.89838 12.9 6.50001 12.9C8.10163 12.9 9.40001 11.6016 9.40001 10C9.40001 8.39837 8.10163 7.1 6.50001 7.1Z" fill="#171719"/>
</svg>
