<svg width="24" height="24" viewBox="0 0 24 24" fill="none" xmlns="http://www.w3.org/2000/svg">
<path fill-rule="evenodd" clip-rule="evenodd" d="M9.61124 2.34998H14.3891C15.4762 2.34997 16.3469 2.34996 17.0507 2.40746C17.7733 2.46651 18.3989 2.59064 18.9747 2.88404C19.8967 3.35382 20.6463 4.10343 21.1161 5.02542C21.4095 5.60127 21.5337 6.22683 21.5927 6.9495C21.6502 7.65327 21.6502 8.52395 21.6502 9.61102V14.3889C21.6502 15.476 21.6502 16.3467 21.5927 17.0505C21.5337 17.7731 21.4095 18.3987 21.1161 18.9745C20.6463 19.8965 19.8967 20.6461 18.9747 21.1159C18.3989 21.4093 17.7733 21.5334 17.0507 21.5925C16.3469 21.65 15.4762 21.65 14.3891 21.65H9.61124C8.52416 21.65 7.65348 21.65 6.94971 21.5925C6.22704 21.5334 5.60148 21.4093 5.02564 21.1159C4.10364 20.6461 3.35404 19.8965 2.88426 18.9745C2.59085 18.3987 2.46672 17.7731 2.40768 17.0505C2.35017 16.3467 2.35018 15.476 2.35019 14.3889V9.61103C2.35018 8.52395 2.35017 7.65327 2.40768 6.94949C2.46672 6.22683 2.59085 5.60127 2.88426 5.02542C3.35404 4.10343 4.10364 3.35382 5.02564 2.88404C5.60148 2.59064 6.22704 2.46651 6.94971 2.40746C7.65348 2.34996 8.52416 2.34997 9.61124 2.34998Z" fill="#171719"/>
</svg>
